<?xml version="1.0" encoding="utf-8"?>
<!-- Generator: Adobe Illustrator 24.1.2, SVG Export Plug-In . SVG Version: 6.00 Build 0)  -->
<svg version="1.1" id="Capa_1" xmlns="http://www.w3.org/2000/svg" xmlns:xlink="http://www.w3.org/1999/xlink" x="0px" y="0px"
	 viewBox="0 0 250 250" style="enable-background:new 0 0 250 250;" xml:space="preserve">
<rect style="fill:#161616;" width="250" height="250"/>
<g>
	<path style="fill:#F2C611;" d="M108.1,106.8H96.8L85,121.9h11.3L108.1,106.8z M134.3,106.8l-11.8,15.1h11.3l11.8-15.1H134.3z
		 M141.3,121.9h11.3l11.8-15.1h-11.3L141.3,121.9z M115.1,121.9l11.8-15.1h-11.3l-11.8,15.1H115.1z M89.4,106.8H75v15.1h2.6
		L89.4,106.8z M160,121.9h15v-15.1h-3.2L160,121.9z M81.3,167.4H75v5.9h18.8v-5.9h-6.6v-39.7h-5.9V167.4z M162.7,167.4h-6.4v5.9H175
		v-5.9h-6.4v-39.7h-5.9V167.4z M87.3,94.7c-0.9,0.2-1.9,0.4-2.9,0.4s-2-0.1-2.9-0.4v6.2h5.9V94.7z M168.6,94.7
		c-0.9,0.2-1.9,0.4-2.9,0.4s-2-0.1-2.9-0.4v6.2h5.9V94.7z M84.4,76.8c3.5,0,6.3,2.8,6.3,6.3s-2.8,6.3-6.3,6.3S78,86.6,78,83.1
		S80.9,76.8,84.4,76.8z M165.6,76.8c3.5,0,6.3,2.8,6.3,6.3s-2.8,6.3-6.3,6.3s-6.3-2.8-6.3-6.3S162.1,76.8,165.6,76.8z"/>
	<g style="opacity:7.000000e-02;">
		<path style="fill:#F2C611;" d="M165.6,76.8c3.5,0,6.3,2.8,6.3,6.3s-2.8,6.3-6.3,6.3s-6.3-2.8-6.3-6.3S162.1,76.8,165.6,76.8
			 M84.4,76.8c3.5,0,6.3,2.8,6.3,6.3s-2.8,6.3-6.3,6.3S78,86.6,78,83.1S80.9,76.8,84.4,76.8 M168.6,94.7v6.2h-5.9v-6.2
			c0.9,0.2,1.9,0.4,2.9,0.4S167.6,95,168.6,94.7 M87.3,94.7v6.2h-5.9v-6.2c0.9,0.2,1.9,0.4,2.9,0.4S86.4,95,87.3,94.7 M175,106.7
			v15.1h-15l11.8-15.1H175 M164.4,106.7L164.4,106.7 M164.4,106.7l-11.8,15.1h-11.3l11.8-15.1H164.4 M126.9,106.7L126.9,106.7
			 M126.9,106.7l-11.8,15.1h-11.3l11.8-15.1H126.9 M145.6,106.8L145.6,106.8 M145.6,106.8l-11.8,15.1h-11.3l11.8-15.1H145.6
			 M108.1,106.8L108.1,106.8 M108.1,106.8l-11.8,15.1H85l11.8-15.1H108.1 M89.4,106.8L89.4,106.8 M89.4,106.8l-11.8,15.1H75v-15.1
			H89.4 M168.6,127.7v39.7h6.4v5.9h-18.8v-5.9h6.4v-39.7H168.6 M87.1,127.7v39.7h6.6v5.9H75v-5.9h6.3v-39.7H87.1 M165.6,74.8
			c-4.6,0-8.3,3.7-8.3,8.3s3.7,8.3,8.3,8.3s8.3-3.7,8.3-8.3S170.2,74.8,165.6,74.8L165.6,74.8z M84.4,74.8c-4.6,0-8.3,3.7-8.3,8.3
			s3.7,8.3,8.3,8.3s8.3-3.7,8.3-8.3S89,74.8,84.4,74.8L84.4,74.8z M168.6,92.7c-0.2,0-0.3,0-0.5,0.1c-0.8,0.2-1.6,0.3-2.4,0.3
			s-1.6-0.1-2.4-0.3c-0.2,0-0.3-0.1-0.5-0.1c-0.4,0-0.9,0.1-1.2,0.4c-0.5,0.4-0.8,1-0.8,1.6v6.2c0,1.1,0.9,2,2,2h5.9
			c1.1,0,2-0.9,2-2v-6.2c0-0.6-0.3-1.2-0.8-1.6C169.4,92.9,169,92.7,168.6,92.7L168.6,92.7z M87.3,92.7c-0.2,0-0.3,0-0.5,0.1
			c-0.8,0.2-1.6,0.3-2.4,0.3s-1.6-0.1-2.4-0.3c-0.2,0-0.3-0.1-0.5-0.1c-0.4,0-0.9,0.1-1.2,0.4c-0.5,0.4-0.8,1-0.8,1.6v6.2
			c0,1.1,0.9,2,2,2h5.9c1.1,0,2-0.9,2-2v-6.2c0-0.6-0.3-1.2-0.8-1.6C88.2,92.9,87.7,92.7,87.3,92.7L87.3,92.7z M175,104.7h-3.2
			c-0.6,0-1.2,0.3-1.6,0.8l-11.8,15.1c-0.5,0.6-0.6,1.4-0.2,2.1c0.3,0.7,1,1.1,1.8,1.1h15c1.1,0,2-0.9,2-2v-15.1
			C177,105.6,176.1,104.7,175,104.7L175,104.7z M164.4,104.7L164.4,104.7h-11.3c-0.6,0-1.2,0.3-1.6,0.8l-11.8,15.1
			c-0.5,0.6-0.6,1.4-0.2,2.1c0.3,0.7,1,1.1,1.8,1.1h11.3c0.6,0,1.2-0.3,1.6-0.8l11.8-15.1c0.3-0.3,0.5-0.8,0.5-1.3
			C166.4,105.6,165.5,104.7,164.4,104.7L164.4,104.7z M164.4,108.7L164.4,108.7L164.4,108.7L164.4,108.7z M126.9,104.7L126.9,104.7
			h-11.3c-0.6,0-1.2,0.3-1.6,0.8l-11.8,15.1c-0.5,0.6-0.6,1.4-0.2,2.1c0.3,0.7,1,1.1,1.8,1.1h11.3c0.6,0,1.2-0.3,1.6-0.8l11.8-15.1
			c0.3-0.3,0.5-0.8,0.5-1.3C128.9,105.6,128,104.7,126.9,104.7L126.9,104.7z M126.9,108.7L126.9,108.7L126.9,108.7L126.9,108.7z
			 M145.6,104.8L145.6,104.8h-11.3c-0.6,0-1.2,0.3-1.6,0.8l-11.8,15.1c-0.5,0.6-0.6,1.4-0.2,2.1c0.3,0.7,1,1.1,1.8,1.1h11.3
			c0.6,0,1.2-0.3,1.6-0.8l11.8-15.1c0.3-0.3,0.5-0.8,0.5-1.3C147.6,105.7,146.7,104.8,145.6,104.8L145.6,104.8z M145.6,108.8
			L145.6,108.8L145.6,108.8L145.6,108.8z M108.1,104.8L108.1,104.8H96.8c-0.6,0-1.2,0.3-1.6,0.8l-11.8,15.1
			c-0.5,0.6-0.6,1.4-0.2,2.1c0.3,0.7,1,1.1,1.8,1.1h11.3c0.6,0,1.2-0.3,1.6-0.8l11.8-15.1c0.3-0.3,0.5-0.8,0.5-1.3
			C110.1,105.7,109.2,104.8,108.1,104.8L108.1,104.8z M108.1,108.8L108.1,108.8L108.1,108.8L108.1,108.8z M89.4,104.8L89.4,104.8H75
			c-1.1,0-2,0.9-2,2v15.1c0,1.1,0.9,2,2,2h2.6c0.6,0,1.2-0.3,1.6-0.8L90.9,108c0.3-0.3,0.5-0.8,0.5-1.3
			C91.4,105.7,90.5,104.8,89.4,104.8L89.4,104.8z M89.4,108.8L89.4,108.8L89.4,108.8L89.4,108.8z M168.6,125.7h-5.9
			c-1.1,0-2,0.9-2,2v37.7h-4.4c-1.1,0-2,0.9-2,2v5.9c0,1.1,0.9,2,2,2H175c1.1,0,2-0.9,2-2v-5.9c0-1.1-0.9-2-2-2h-4.4v-37.7
			C170.6,126.6,169.7,125.7,168.6,125.7L168.6,125.7z M87.1,125.7h-5.9c-1.1,0-2,0.9-2,2v37.7H75c-1.1,0-2,0.9-2,2v5.9
			c0,1.1,0.9,2,2,2h18.8c1.1,0,2-0.9,2-2v-5.9c0-1.1-0.9-2-2-2h-4.6v-37.7C89.1,126.6,88.2,125.7,87.1,125.7L87.1,125.7z"/>
	</g>
	<g style="opacity:7.000000e-02;">
		<path style="fill:#F2C611;" d="M165.6,76.8c3.5,0,6.3,2.8,6.3,6.3s-2.8,6.3-6.3,6.3s-6.3-2.8-6.3-6.3S162.1,76.8,165.6,76.8
			 M84.4,76.8c3.5,0,6.3,2.8,6.3,6.3s-2.8,6.3-6.3,6.3S78,86.6,78,83.1S80.9,76.8,84.4,76.8 M168.6,94.7v6.2h-5.9v-6.2
			c0.9,0.2,1.9,0.4,2.9,0.4S167.6,95,168.6,94.7 M87.3,94.7v6.2h-5.9v-6.2c0.9,0.2,1.9,0.4,2.9,0.4S86.4,95,87.3,94.7 M175,106.7
			v15.1h-15l11.8-15.1H175 M164.4,106.7L164.4,106.7 M164.4,106.7l-11.8,15.1h-11.3l11.8-15.1H164.4 M126.9,106.7L126.9,106.7
			 M126.9,106.7l-11.8,15.1h-11.3l11.8-15.1H126.9 M145.6,106.8L145.6,106.8 M145.6,106.8l-11.8,15.1h-11.3l11.8-15.1H145.6
			 M108.1,106.8L108.1,106.8 M108.1,106.8l-11.8,15.1H85l11.8-15.1H108.1 M89.4,106.8L89.4,106.8 M89.4,106.8l-11.8,15.1H75v-15.1
			H89.4 M168.6,127.7v39.7h6.4v5.9h-18.8v-5.9h6.4v-39.7H168.6 M87.1,127.7v39.7h6.6v5.9H75v-5.9h6.3v-39.7H87.1 M165.6,72.8
			c-5.7,0-10.3,4.6-10.3,10.3c0,3.6,1.9,6.8,4.7,8.7c-0.8,0.8-1.3,1.8-1.3,3v6.2c0,0.7,0.2,1.3,0.4,1.8h-6.1c-1.2,0-2.4,0.6-3.2,1.5
			l-0.6,0.8c-0.6-1.4-2-2.3-3.6-2.3h0h-11.3c-1.2,0-2.4,0.6-3.2,1.5l-0.6,0.8c-0.6-1.4-2-2.4-3.7-2.4h0h-11.3
			c-1.2,0-2.4,0.6-3.2,1.5l-0.6,0.8c-0.6-1.4-2-2.3-3.6-2.3h0H96.8c-1.2,0-2.4,0.6-3.2,1.5l-0.6,0.8c-0.4-1-1.3-1.8-2.3-2.1
			c0.4-0.6,0.6-1.3,0.6-2.1v-6.2c0-1.1-0.5-2.2-1.3-3c2.8-1.8,4.7-5,4.7-8.7c0-5.7-4.6-10.3-10.3-10.3S74,77.4,74,83.1
			c0,3.6,1.9,6.8,4.7,8.7c-0.8,0.8-1.3,1.8-1.3,3v6.2c0,0.7,0.2,1.3,0.5,1.9H75c-2.2,0-4,1.8-4,4v15.1c0,2.2,1.8,4,4,4h2.6
			c0,0,0.1,0,0.1,0c-0.3,0.6-0.4,1.2-0.4,1.8v35.7H75c-2.2,0-4,1.8-4,4v5.9c0,2.2,1.8,4,4,4h18.8c2.2,0,4-1.8,4-4v-5.9
			c0-2.2-1.8-4-4-4h-2.6v-35.7c0-0.7-0.2-1.3-0.4-1.8h5.6c1.2,0,2.4-0.6,3.2-1.5l0.6-0.8c0,0,0,0.1,0,0.1c0.7,1.4,2.1,2.2,3.6,2.2
			h11.3c1.2,0,2.4-0.6,3.2-1.5l0.6-0.8c0,0,0,0.1,0.1,0.1c0.7,1.4,2.1,2.2,3.6,2.2h11.3c1.2,0,2.4-0.6,3.2-1.5l0.6-0.8
			c0,0,0,0.1,0,0.1c0.7,1.4,2.1,2.2,3.6,2.2h11.3c1.2,0,2.4-0.6,3.2-1.5l0.6-0.8c0,0,0,0.1,0.1,0.1c0.6,1.1,1.6,1.9,2.8,2.2
			c-0.3,0.6-0.5,1.2-0.5,1.9v35.7h-2.4c-2.2,0-4,1.8-4,4v5.9c0,2.2,1.8,4,4,4H175c2.2,0,4-1.8,4-4v-5.9c0-2.2-1.8-4-4-4h-2.4v-35.7
			c0-0.7-0.2-1.3-0.5-1.9h2.9c2.2,0,4-1.8,4-4v-15.1c0-2.2-1.8-4-4-4h-2.9c0.3-0.6,0.4-1.2,0.4-1.8v-6.2c0-1.1-0.5-2.2-1.3-3
			c2.8-1.8,4.7-5,4.7-8.7C176,77.4,171.3,72.8,165.6,72.8L165.6,72.8z M167.9,104.9h0.2l-0.2,0.2C168,105,168,105,167.9,104.9
			L167.9,104.9z M81.2,123.7l0.2-0.2c0,0,0,0.1,0.1,0.1c0,0,0,0.1,0,0.1L81.2,123.7C81.2,123.7,81.2,123.7,81.2,123.7L81.2,123.7z"
			/>
	</g>
	<g style="opacity:7.000000e-02;">
		<path style="fill:#F2C611;" d="M165.6,76.8c3.5,0,6.3,2.8,6.3,6.3s-2.8,6.3-6.3,6.3s-6.3-2.8-6.3-6.3S162.1,76.8,165.6,76.8
			 M84.4,76.8c3.5,0,6.3,2.8,6.3,6.3s-2.8,6.3-6.3,6.3S78,86.6,78,83.1S80.9,76.8,84.4,76.8 M168.6,94.7v6.2h-5.9v-6.2
			c0.9,0.2,1.9,0.4,2.9,0.4S167.6,95,168.6,94.7 M87.3,94.7v6.2h-5.9v-6.2c0.9,0.2,1.9,0.4,2.9,0.4C85.4,95.1,86.4,95,87.3,94.7
			 M175,106.7v15.1h-15l11.8-15.1H175 M164.4,106.7L164.4,106.7 M164.4,106.7l-11.8,15.1h-11.3l11.8-15.1H164.4 M126.9,106.7
			L126.9,106.7 M126.9,106.7l-11.8,15.1h-11.3l11.8-15.1H126.9 M145.6,106.8L145.6,106.8 M145.6,106.8l-11.8,15.1h-11.3l11.8-15.1
			H145.6 M108.1,106.8L108.1,106.8 M108.1,106.8l-11.8,15.1H85l11.8-15.1H108.1 M89.4,106.8L89.4,106.8 M89.4,106.8l-11.8,15.1H75
			v-15.1H89.4 M168.6,127.7v39.7h6.4v5.9h-18.8v-5.9h6.4v-39.7H168.6 M87.1,127.7v39.7h6.6v5.9H75v-5.9h6.3v-39.7H87.1 M165.6,70.8
			c-6.8,0-12.3,5.5-12.3,12.3c0,3.6,1.5,6.8,4,9.1c-0.4,0.8-0.6,1.7-0.6,2.6v6h-3.6c-1.4,0-2.7,0.5-3.7,1.3c-1-0.8-2.3-1.3-3.7-1.3
			h0h-11.3c-1.4,0-2.7,0.5-3.7,1.3c-1-0.8-2.3-1.3-3.7-1.3h0h-11.3c-1.4,0-2.7,0.5-3.7,1.3c-1-0.8-2.3-1.3-3.7-1.3h0H96.8
			c-1.3,0-2.6,0.4-3.6,1.2c0.1-0.3,0.1-0.7,0.1-1.1v-6.2c0-0.9-0.2-1.8-0.6-2.6c2.4-2.3,4-5.5,4-9.1c0-6.8-5.5-12.3-12.3-12.3
			S72,76.3,72,83.1c0,3.6,1.5,6.8,4,9.1c-0.4,0.8-0.6,1.7-0.6,2.6v6H75c-3.3,0-6,2.7-6,6v15.1c0,3.3,2.7,6,6,6h0.3v33.5H75
			c-3.3,0-6,2.7-6,6v5.9c0,3.3,2.7,6,6,6h18.8c3.3,0,6-2.7,6-6v-5.9c0-3.3-2.7-6-6-6h-0.6v-33.5h3.2c1.4,0,2.7-0.5,3.7-1.3
			c1,0.8,2.3,1.3,3.7,1.3h11.3c1.4,0,2.7-0.5,3.7-1.3c1,0.8,2.4,1.3,3.7,1.3h11.3c1.4,0,2.7-0.5,3.7-1.3c1,0.8,2.3,1.3,3.7,1.3h11.3
			c1.4,0,2.7-0.5,3.7-1.3c0.2,0.1,0.3,0.2,0.5,0.3c0,0.3-0.1,0.5-0.1,0.8v33.7h-0.4c-3.3,0-6,2.7-6,6v5.9c0,3.3,2.7,6,6,6H175
			c3.3,0,6-2.7,6-6v-5.9c0-3.3-2.7-6-6-6h-0.4v-33.5h0.4c3.3,0,6-2.7,6-6v-15.1c0-3.3-2.7-6-6-6h-0.4v-6c0-0.9-0.2-1.8-0.6-2.6
			c2.4-2.3,4-5.5,4-9.1C178,76.3,172.4,70.8,165.6,70.8L165.6,70.8z"/>
	</g>
	<g style="opacity:7.000000e-02;">
		<path style="fill:#F2C611;" d="M165.6,76.8c3.5,0,6.3,2.8,6.3,6.3s-2.8,6.3-6.3,6.3s-6.3-2.8-6.3-6.3S162.1,76.8,165.6,76.8
			 M84.4,76.8c3.5,0,6.3,2.8,6.3,6.3s-2.8,6.3-6.3,6.3S78,86.6,78,83.1S80.9,76.8,84.4,76.8 M168.6,94.7v6.2h-5.9v-6.2
			c0.9,0.2,1.9,0.4,2.9,0.4S167.6,95,168.6,94.7 M87.3,94.7v6.2h-5.9v-6.2c0.9,0.2,1.9,0.4,2.9,0.4S86.4,95,87.3,94.7 M175,106.7
			v15.1h-15l11.8-15.1H175 M164.4,106.7L164.4,106.7 M164.4,106.7l-11.8,15.1h-11.3l11.8-15.1H164.4 M126.9,106.7L126.9,106.7
			 M126.9,106.7l-11.8,15.1h-11.3l11.8-15.1H126.9 M145.6,106.8L145.6,106.8 M145.6,106.8l-11.8,15.1h-11.3l11.8-15.1H145.6
			 M108.1,106.8L108.1,106.8 M108.1,106.8l-11.8,15.1H85l11.8-15.1H108.1 M89.4,106.8L89.4,106.8 M89.4,106.8l-11.8,15.1H75v-15.1
			H89.4 M168.6,127.7v39.7h6.4v5.9h-18.8v-5.9h6.4v-39.7H168.6 M87.1,127.7v39.7h6.6v5.9H75v-5.9h6.3v-39.7H87.1 M165.6,68.8
			c-7.9,0-14.3,6.4-14.3,14.3c0,3.7,1.4,7,3.7,9.6c-0.2,0.7-0.3,1.4-0.3,2.1v4h-1.6c-1.3,0-2.6,0.3-3.7,0.9
			c-1.1-0.6-2.4-0.9-3.7-0.9h0h-11.3c-1.3,0-2.6,0.3-3.7,0.9c-1.1-0.6-2.4-0.9-3.7-0.9h0h-11.3c-1.3,0-2.6,0.3-3.7,0.9
			c-1.1-0.6-2.4-0.9-3.7-0.9h0H96.8c-0.5,0-1,0-1.5,0.1v-4.2c0-0.7-0.1-1.4-0.3-2.1c2.3-2.5,3.7-5.9,3.7-9.6
			c0-7.9-6.4-14.3-14.3-14.3S70,75.2,70,83.1c0,3.7,1.4,7,3.7,9.6c-0.2,0.7-0.3,1.4-0.3,2.1v4.2c-3.7,0.7-6.4,4-6.4,7.8v15.1
			c0,3.8,2.7,7,6.3,7.8v29.9c-3.6,0.8-6.3,4-6.3,7.8v5.9c0,4.4,3.6,8,8,8h18.8c4.4,0,8-3.6,8-8v-5.9c0-4-2.9-7.2-6.6-7.9v-29.6h1.2
			c1.3,0,2.6-0.3,3.7-0.9c1.1,0.6,2.4,0.9,3.7,0.9h11.3c1.3,0,2.6-0.3,3.7-0.9c1.1,0.6,2.4,0.9,3.7,0.9h11.3c1.3,0,2.6-0.3,3.7-0.9
			c1.1,0.6,2.4,0.9,3.7,0.9h11.3c0.7,0,1.4-0.1,2.1-0.3v30c-3.7,0.7-6.4,4-6.4,7.8v5.9c0,4.4,3.6,8,8,8H175c4.4,0,8-3.6,8-8v-5.9
			c0-3.9-2.8-7.1-6.4-7.8v-29.8c3.7-0.7,6.4-4,6.4-7.8v-15.1c0-3.9-2.8-7.1-6.4-7.8v-4.2c0-0.7-0.1-1.4-0.3-2.1
			c2.3-2.5,3.7-5.9,3.7-9.6C180,75.2,173.5,68.8,165.6,68.8L165.6,68.8z"/>
	</g>
	<g style="opacity:7.000000e-02;">
		<path style="fill:#F2C611;" d="M165.6,76.8c3.5,0,6.3,2.8,6.3,6.3s-2.8,6.3-6.3,6.3s-6.3-2.8-6.3-6.3S162.1,76.8,165.6,76.8
			 M84.4,76.8c3.5,0,6.3,2.8,6.3,6.3s-2.8,6.3-6.3,6.3S78,86.6,78,83.1S80.9,76.8,84.4,76.8 M168.6,94.7v6.2h-5.9v-6.2
			c0.9,0.2,1.9,0.4,2.9,0.4S167.6,95,168.6,94.7 M87.3,94.7v6.2h-5.9v-6.2c0.9,0.2,1.9,0.4,2.9,0.4S86.4,95,87.3,94.7 M175,106.7
			v15.1h-15l11.8-15.1H175 M164.4,106.7L164.4,106.7 M164.4,106.7l-11.8,15.1h-11.3l11.8-15.1H164.4 M126.9,106.7L126.9,106.7
			 M126.9,106.7l-11.8,15.1h-11.3l11.8-15.1H126.9 M145.6,106.8L145.6,106.8 M145.6,106.8l-11.8,15.1h-11.3l11.8-15.1H145.6
			 M108.1,106.8L108.1,106.8 M108.1,106.8l-11.8,15.1H85l11.8-15.1H108.1 M89.4,106.8L89.4,106.8 M89.4,106.8l-11.8,15.1H75v-15.1
			H89.4 M168.6,127.7v39.7h6.4v5.9h-18.8v-5.9h6.4v-39.7H168.6 M87.1,127.7v39.7h6.6v5.9H75v-5.9h6.3v-39.7H87.1 M165.6,66.8
			c-9,0-16.3,7.3-16.3,16.3c0,3.8,1.3,7.3,3.5,10.1c-0.1,0.5-0.1,1-0.1,1.5v2c-1.2,0-2.3,0.3-3.4,0.7c-1.1-0.5-2.4-0.7-3.7-0.7h0
			h-11.3c-1.3,0-2.5,0.2-3.7,0.7c-1.2-0.5-2.4-0.7-3.7-0.7h0h-11.3c-1.3,0-2.6,0.3-3.7,0.7c-1.1-0.5-2.4-0.7-3.7-0.7h0H97.3v-2
			c0-0.5,0-1-0.1-1.5c2.2-2.8,3.5-6.3,3.5-10.1c0-9-7.3-16.3-16.3-16.3S68,74.1,68,83.1c0,3.8,1.3,7.3,3.5,10.1
			c-0.1,0.5-0.1,1-0.1,1.5v2.7c-3.8,1.4-6.4,5.1-6.4,9.3v15.1c0,4.2,2.6,7.8,6.3,9.3v27c-3.7,1.5-6.3,5.1-6.3,9.3v5.9
			c0,5.5,4.5,10,10,10h18.8c5.5,0,10-4.5,10-10v-5.9c0-4.3-2.8-8-6.6-9.4v-26.1c1-0.1,2-0.3,2.9-0.7c1.2,0.5,2.4,0.7,3.7,0.7h11.3
			c1.3,0,2.5-0.2,3.7-0.7c1.2,0.5,2.4,0.7,3.7,0.7h11.3c1.3,0,2.6-0.3,3.7-0.7c1.2,0.5,2.4,0.7,3.7,0.7h11.3c0,0,0.1,0,0.1,0V158
			c-3.8,1.4-6.4,5.1-6.4,9.3v5.9c0,5.5,4.5,10,10,10H175c5.5,0,10-4.5,10-10v-5.9c0-4.3-2.7-7.9-6.4-9.3v-26.8
			c3.8-1.4,6.4-5.1,6.4-9.3v-15.1c0-4.3-2.7-7.9-6.4-9.3v-2.7c0-0.5,0-1-0.1-1.5c2.2-2.8,3.5-6.3,3.5-10.1
			C182,74.1,174.6,66.8,165.6,66.8L165.6,66.8z"/>
	</g>
	<g style="opacity:7.000000e-02;">
		<path style="fill:#F2C611;" d="M165.6,76.8c3.5,0,6.3,2.8,6.3,6.3c0,3.5-2.8,6.3-6.3,6.3s-6.3-2.8-6.3-6.3
			C159.3,79.6,162.1,76.8,165.6,76.8 M84.4,76.8c3.5,0,6.3,2.8,6.3,6.3c0,3.5-2.8,6.3-6.3,6.3S78,86.6,78,83.1
			C78,79.6,80.9,76.8,84.4,76.8 M168.6,94.7v6.2h-5.9v-6.2c0.9,0.2,1.9,0.4,2.9,0.4S167.6,95,168.6,94.7 M87.3,94.7v6.2h-5.9v-6.2
			c0.9,0.2,1.9,0.4,2.9,0.4S86.4,95,87.3,94.7 M175,106.7v15.1h-15l11.8-15.1H175 M164.4,106.7L164.4,106.7 M164.4,106.7l-11.8,15.1
			h-11.3l11.8-15.1H164.4 M126.9,106.7L126.9,106.7 M126.9,106.7l-11.8,15.1h-11.3l11.8-15.1H126.9 M145.6,106.8L145.6,106.8
			 M145.6,106.8l-11.8,15.1h-11.3l11.8-15.1H145.6 M108.1,106.8L108.1,106.8 M108.1,106.8l-11.8,15.1H85l11.8-15.1H108.1
			 M89.4,106.8L89.4,106.8 M89.4,106.8l-11.8,15.1H75v-15.1H89.4 M168.6,127.7v39.7h6.4v5.9h-18.8v-5.9h6.4v-39.7H168.6 M87.1,127.7
			v39.7h6.6v5.9H75v-5.9h6.3v-39.7H87.1 M165.6,64.8c-10.1,0-18.3,8.2-18.3,18.3c0,4,1.3,7.7,3.4,10.7c0,0.3,0,0.6,0,1V95
			c-0.5,0.1-0.9,0.2-1.4,0.4c-1.2-0.4-2.4-0.6-3.7-0.6h0h-11.3c-1.3,0-2.5,0.2-3.7,0.6c-1.2-0.4-2.4-0.6-3.8-0.6h0h-11.3
			c-1.3,0-2.5,0.2-3.7,0.6c-1.2-0.4-2.4-0.6-3.7-0.6h0h-8.8v0c0-0.3,0-0.6,0-1c2.2-3,3.4-6.7,3.4-10.7c0-10.1-8.2-18.3-18.3-18.3
			S66,73,66,83.1c0,4,1.3,7.7,3.4,10.7c0,0.3,0,0.6,0,1v1.4c-3.8,2-6.4,6-6.4,10.6v15.1c0,4.5,2.5,8.5,6.3,10.5v24.4
			c-3.7,2-6.3,6-6.3,10.5v5.9c0,6.6,5.4,12,12,12h18.8c6.6,0,12-5.4,12-12v-5.9c0-4.7-2.7-8.8-6.6-10.7v-23.1
			c0.3-0.1,0.6-0.2,0.9-0.3c1.2,0.4,2.4,0.6,3.7,0.6h11.3c1.3,0,2.5-0.2,3.7-0.6c1.2,0.4,2.5,0.6,3.8,0.6h11.3
			c1.3,0,2.6-0.2,3.8-0.6c1.2,0.4,2.4,0.6,3.7,0.6h9.4v22.9c-3.8,2-6.4,6-6.4,10.6v5.9c0,6.6,5.4,12,12,12H175c6.6,0,12-5.4,12-12
			v-5.9c0-4.6-2.6-8.6-6.4-10.6v-24.2c3.8-2,6.4-6,6.4-10.6v-15.1c0-4.6-2.6-8.6-6.4-10.6v-1.4c0-0.3,0-0.6,0-1
			c2.2-3,3.4-6.7,3.4-10.7C184,73,175.7,64.8,165.6,64.8L165.6,64.8z"/>
	</g>
</g>
</svg>
